<mxfile host="app.diagrams.net" modified="2022-04-17T10:28:37.239Z" agent="5.0 (X11; Linux x86_64) AppleWebKit/537.36 (KHTML, like Gecko) Chrome/99.0.4844.82 Safari/537.36" etag="WRTbLbFzPv9ai4_T30S8" version="17.4.5" type="github">
  <diagram id="pyPhvPwrKdq9ig3_K4u6" name="第 1 页">
    <mxGraphModel dx="1036" dy="557" grid="0" gridSize="10" guides="1" tooltips="1" connect="1" arrows="1" fold="1" page="1" pageScale="1" pageWidth="1169" pageHeight="827" math="0" shadow="0">
      <root>
        <mxCell id="0" />
        <mxCell id="1" parent="0" />
        <mxCell id="ZTOVX-WNuYjKIGK4NRtp-1" value="&lt;font style=&quot;font-size: 11px ; line-height: 1.2&quot;&gt;:服务后台&lt;/font&gt;" style="shape=umlLifeline;perimeter=lifelinePerimeter;whiteSpace=wrap;html=1;container=1;collapsible=0;recursiveResize=0;outlineConnect=0;rounded=1;shadow=0;comic=0;labelBackgroundColor=none;strokeWidth=1;fontFamily=Verdana;fontSize=12;align=center;" vertex="1" parent="1">
          <mxGeometry x="344" y="207" width="100" height="342" as="geometry" />
        </mxCell>
        <mxCell id="ZTOVX-WNuYjKIGK4NRtp-2" value="" style="html=1;points=[];perimeter=orthogonalPerimeter;rounded=0;shadow=0;comic=0;labelBackgroundColor=none;strokeWidth=1;fontFamily=Verdana;fontSize=12;align=center;" vertex="1" parent="ZTOVX-WNuYjKIGK4NRtp-1">
          <mxGeometry x="45" y="100" width="10" height="242" as="geometry" />
        </mxCell>
        <mxCell id="ZTOVX-WNuYjKIGK4NRtp-3" style="edgeStyle=orthogonalEdgeStyle;rounded=0;orthogonalLoop=1;jettySize=auto;html=1;" edge="1" parent="ZTOVX-WNuYjKIGK4NRtp-1" source="ZTOVX-WNuYjKIGK4NRtp-2">
          <mxGeometry relative="1" as="geometry">
            <mxPoint x="54" y="322" as="targetPoint" />
            <Array as="points">
              <mxPoint x="75" y="241" />
              <mxPoint x="75" y="322" />
            </Array>
          </mxGeometry>
        </mxCell>
        <mxCell id="ZTOVX-WNuYjKIGK4NRtp-4" value="处理退货订单" style="edgeLabel;html=1;align=center;verticalAlign=middle;resizable=0;points=[];" vertex="1" connectable="0" parent="ZTOVX-WNuYjKIGK4NRtp-3">
          <mxGeometry x="-0.2459" y="-3" relative="1" as="geometry">
            <mxPoint x="26" y="16" as="offset" />
          </mxGeometry>
        </mxCell>
        <mxCell id="ZTOVX-WNuYjKIGK4NRtp-5" value=":数据库" style="shape=umlLifeline;perimeter=lifelinePerimeter;whiteSpace=wrap;html=1;container=1;collapsible=0;recursiveResize=0;outlineConnect=0;rounded=1;shadow=0;comic=0;labelBackgroundColor=none;strokeWidth=1;fontFamily=Verdana;fontSize=12;align=center;" vertex="1" parent="1">
          <mxGeometry x="504" y="207" width="100" height="305" as="geometry" />
        </mxCell>
        <mxCell id="ZTOVX-WNuYjKIGK4NRtp-6" value="" style="html=1;points=[];perimeter=orthogonalPerimeter;rounded=0;shadow=0;comic=0;labelBackgroundColor=none;strokeWidth=1;fontFamily=Verdana;fontSize=12;align=center;" vertex="1" parent="ZTOVX-WNuYjKIGK4NRtp-5">
          <mxGeometry x="45" y="98" width="10" height="172" as="geometry" />
        </mxCell>
        <mxCell id="ZTOVX-WNuYjKIGK4NRtp-7" value=":用户" style="shape=umlLifeline;perimeter=lifelinePerimeter;whiteSpace=wrap;html=1;container=1;collapsible=0;recursiveResize=0;outlineConnect=0;rounded=1;shadow=0;comic=0;labelBackgroundColor=none;strokeWidth=1;fontFamily=Verdana;fontSize=12;align=center;" vertex="1" parent="1">
          <mxGeometry x="177" y="207" width="100" height="351" as="geometry" />
        </mxCell>
        <mxCell id="ZTOVX-WNuYjKIGK4NRtp-8" value="" style="html=1;points=[];perimeter=orthogonalPerimeter;rounded=0;shadow=0;comic=0;labelBackgroundColor=none;strokeWidth=1;fontFamily=Verdana;fontSize=12;align=center;" vertex="1" parent="ZTOVX-WNuYjKIGK4NRtp-7">
          <mxGeometry x="45" y="100" width="10" height="251" as="geometry" />
        </mxCell>
        <mxCell id="ZTOVX-WNuYjKIGK4NRtp-9" style="edgeStyle=orthogonalEdgeStyle;rounded=0;orthogonalLoop=1;jettySize=auto;html=1;" edge="1" parent="1" source="ZTOVX-WNuYjKIGK4NRtp-8">
          <mxGeometry relative="1" as="geometry">
            <mxPoint x="390" y="323" as="targetPoint" />
            <Array as="points">
              <mxPoint x="275" y="322" />
              <mxPoint x="275" y="322" />
            </Array>
          </mxGeometry>
        </mxCell>
        <mxCell id="ZTOVX-WNuYjKIGK4NRtp-10" value="申请退货" style="edgeLabel;html=1;align=center;verticalAlign=middle;resizable=0;points=[];" vertex="1" connectable="0" parent="ZTOVX-WNuYjKIGK4NRtp-9">
          <mxGeometry x="-0.1295" y="-2" relative="1" as="geometry">
            <mxPoint x="8" y="-1" as="offset" />
          </mxGeometry>
        </mxCell>
        <mxCell id="ZTOVX-WNuYjKIGK4NRtp-11" style="edgeStyle=orthogonalEdgeStyle;rounded=0;orthogonalLoop=1;jettySize=auto;html=1;entryX=-0.056;entryY=0.32;entryDx=0;entryDy=0;entryPerimeter=0;" edge="1" parent="1" source="ZTOVX-WNuYjKIGK4NRtp-2" target="ZTOVX-WNuYjKIGK4NRtp-6">
          <mxGeometry relative="1" as="geometry">
            <Array as="points">
              <mxPoint x="438" y="360" />
              <mxPoint x="438" y="360" />
            </Array>
          </mxGeometry>
        </mxCell>
        <mxCell id="ZTOVX-WNuYjKIGK4NRtp-12" value="将退货信息写入" style="edgeLabel;html=1;align=center;verticalAlign=middle;resizable=0;points=[];" vertex="1" connectable="0" parent="ZTOVX-WNuYjKIGK4NRtp-11">
          <mxGeometry x="-0.2015" y="1" relative="1" as="geometry">
            <mxPoint x="10" as="offset" />
          </mxGeometry>
        </mxCell>
        <mxCell id="ZTOVX-WNuYjKIGK4NRtp-13" style="edgeStyle=orthogonalEdgeStyle;rounded=0;orthogonalLoop=1;jettySize=auto;html=1;entryX=1.144;entryY=0.425;entryDx=0;entryDy=0;entryPerimeter=0;" edge="1" parent="1" source="ZTOVX-WNuYjKIGK4NRtp-6" target="ZTOVX-WNuYjKIGK4NRtp-2">
          <mxGeometry relative="1" as="geometry">
            <Array as="points">
              <mxPoint x="520" y="410" />
              <mxPoint x="520" y="410" />
            </Array>
          </mxGeometry>
        </mxCell>
        <mxCell id="ZTOVX-WNuYjKIGK4NRtp-14" value="返回生成的退货信息" style="edgeLabel;html=1;align=center;verticalAlign=middle;resizable=0;points=[];" vertex="1" connectable="0" parent="ZTOVX-WNuYjKIGK4NRtp-13">
          <mxGeometry x="0.2423" y="-2" relative="1" as="geometry">
            <mxPoint x="20" y="2" as="offset" />
          </mxGeometry>
        </mxCell>
        <mxCell id="ZTOVX-WNuYjKIGK4NRtp-15" style="edgeStyle=orthogonalEdgeStyle;rounded=0;orthogonalLoop=1;jettySize=auto;html=1;entryX=1.24;entryY=0.935;entryDx=0;entryDy=0;entryPerimeter=0;" edge="1" parent="1" source="ZTOVX-WNuYjKIGK4NRtp-2" target="ZTOVX-WNuYjKIGK4NRtp-8">
          <mxGeometry relative="1" as="geometry">
            <Array as="points">
              <mxPoint x="358" y="542" />
              <mxPoint x="358" y="542" />
            </Array>
          </mxGeometry>
        </mxCell>
        <mxCell id="ZTOVX-WNuYjKIGK4NRtp-16" value="返回结果" style="edgeLabel;html=1;align=center;verticalAlign=middle;resizable=0;points=[];" vertex="1" connectable="0" parent="ZTOVX-WNuYjKIGK4NRtp-15">
          <mxGeometry x="0.1798" y="1" relative="1" as="geometry">
            <mxPoint x="10" y="-4" as="offset" />
          </mxGeometry>
        </mxCell>
      </root>
    </mxGraphModel>
  </diagram>
</mxfile>
